<svg id="Layer_2" enable-background="new 0 0 64 64" height="512" viewBox="0 0 64 64" width="512" xmlns="http://www.w3.org/2000/svg"><path d="m53.861 34.02-6 .625.108 20.072.802-4.985-2.982-14.086h-6l-1.082 5.813-3.313 11.977.938 3.181-4.375-2.465 2.205-5.746-1.935-6.947h-6l-1.275 2.713-2.481 5.783-.125 6.729-4.031-4.44.251-3.498-4.256-3.068h-6l.885 15.146h51.594v-25.242z" fill="#db785a"/><path d="m60.789 61.324h-51.594c-.265 0-.483-.206-.499-.471l-.885-15.146c-.008-.138.041-.272.136-.372.094-.101.226-.157.363-.157h6c.104 0 .207.033.292.095l4.257 3.068c.141.101.219.269.207.441l-.236 3.284 3.04 3.349.102-5.47c.001-.064.015-.128.04-.188l2.481-5.783 1.282-2.729c.082-.175.259-.287.452-.287h6c.225 0 .422.149.481.366l1.936 6.947c.029.103.023.213-.015.313l-2.051 5.344 2.926 1.648-.589-2c-.026-.09-.027-.185-.002-.274l3.313-11.977 1.072-5.771c.044-.236.25-.408.491-.408h6c.236 0 .44.165.489.396l1.116 5.271-.033-6.167c-.001-.258.192-.474.448-.5l6-.625c.056-.005.109-.003.162.01l6.928 1.563c.228.051.39.254.39.487v25.242c0 .278-.224.501-.5.501zm-51.122-1h50.622v-24.343l-6.458-1.456-5.468.569.057 10.566.841 3.969c.013.061.015.122.004.183l-.803 4.984c-.041.257-.276.464-.531.419-.26-.02-.461-.235-.462-.495l-.048-8.952-2.037-9.621h-5.18l-1.006 5.404-3.284 11.881.897 3.044c.058.195-.009.406-.168.533-.161.125-.381.143-.557.044l-4.375-2.465c-.216-.122-.311-.383-.222-.614l2.146-5.593-1.789-6.422h-5.303l-1.14 2.426-2.436 5.678-.123 6.631c-.004.204-.133.387-.324.458-.193.073-.408.021-.546-.132l-4.03-4.439c-.092-.101-.139-.235-.129-.372l.231-3.22-3.899-2.811h-5.307z" fill="#63312d"/><path d="m47.861 34.645-1.599 15.392-4.293 4.68.802-13.49-2.982-5.581-5.826 1.333-1.256 12.986-3.313 3.471.938 3.181-4.375-2.465 2.205-5.746-1.935-6.947-7.094 1.025-.181 1.688-2.481 5.783-.04 6.729-4.116-4.44.251-3.498-4.256-3.068-5.115 1.025v14.121h51.594v-24.515z" fill="#f9a287"/><path d="m43.969 56.404 4.293-4.677 1.313-14.62 5.214 1.432v-2.23l-6.928-1.664-1.599 15.392-4.293 4.68.383 6.107h2.009z" fill="#ffc8bb"/><path d="m30.332 56.617v4.207h2.176l.019-4.203-.724-1.873 2.904-3.094 1.256-12.986 4.851-1.104-1.025-1.918-5.826 1.333-1.256 12.986-3.313 3.471z" fill="#ffc8bb"/><path d="m18.471 51.645 2.481-5.784.181-1.689 5.623-.811-.529-1.902-7.094 1.025-.181 1.688-2.481 5.783-.084 10.856 2.03.021z" fill="#ffc8bb"/><path d="m5.195 48.391 5.376-1.082-2.261-1.631-5.115 1.025v14.121h2z" fill="#ffc8bb"/><g fill="#63312d"><path d="m54.789 61.324h-51.594c-.276 0-.5-.224-.5-.5v-14.121c0-.238.168-.443.401-.49l5.114-1.025c.139-.028.279.003.391.085l4.257 3.068c.141.101.219.269.207.441l-.235 3.281 3.108 3.354.032-5.465c0-.066.015-.133.04-.194l2.452-5.714.173-1.613c.024-.227.199-.408.426-.441l7.094-1.025c.245-.031.486.119.553.361l1.936 6.947c.029.103.023.213-.015.313l-2.051 5.344 2.926 1.648-.589-2c-.051-.172-.006-.357.118-.486l3.192-3.346 1.239-12.814c.021-.215.177-.392.387-.439l5.826-1.332c.22-.052.445.053.553.252l2.982 5.58c.043.081.063.173.058.265l-.719 12.086 3.229-3.521 1.583-15.229c.015-.144.091-.273.208-.356.119-.083.267-.109.406-.078l6.928 1.664c.225.054.383.255.383.486v24.516c.001.275-.223.498-.499.498zm-51.094-1h50.594v-23.621l-5.989-1.439-1.541 14.825c-.011.106-.056.207-.129.286l-4.293 4.68c-.143.155-.368.206-.563.122-.194-.082-.316-.278-.304-.489l.794-13.35-2.735-5.119-5.103 1.167-1.221 12.627c-.011.111-.059.217-.137.297l-3.112 3.262.855 2.904c.058.195-.009.406-.168.533-.16.125-.381.143-.557.044l-4.375-2.465c-.216-.122-.311-.383-.222-.614l2.146-5.593-1.772-6.364-6.274.907-.14 1.302c-.005.049-.018.098-.037.144l-2.442 5.69-.039 6.627c-.001.205-.128.389-.318.463-.192.077-.409.025-.548-.126l-4.115-4.439c-.095-.102-.143-.237-.133-.376l.231-3.22-3.854-2.777-4.499.902v13.21z"/><path d="m14.317 58.254h4.142v1h-4.142z" transform="matrix(.021 -1 1 .021 -42.689 73.934)"/><path d="m29.832 56.617h1v4.207h-1z"/><path d="m41.66 54.711h1v6.119h-1z" transform="matrix(.998 -.063 .063 .998 -3.531 2.751)"/></g><path d="m18.131 42.814c-5.197 1.369-10.541-1.752-11.908-6.949-1.365-5.199 1.752-10.543 6.951-11.91 5.201-1.367 10.543 1.752 11.909 6.951s-1.751 10.543-6.952 11.908zm-4.447-16.925c-4.133 1.088-6.611 5.334-5.524 9.467 1.086 4.133 5.331 6.611 9.465 5.527 4.133-1.09 6.61-5.334 5.524-9.469-1.087-4.131-5.333-6.611-9.465-5.525z" fill="#f8f3f3"/><path d="m15.642 43.639c-1.792 0-3.561-.476-5.153-1.404-2.367-1.382-4.054-3.599-4.749-6.242-1.436-5.467 1.843-11.084 7.308-12.521 2.642-.695 5.404-.318 7.771 1.064s4.054 3.6 4.748 6.243c.695 2.644.316 5.403-1.064 7.771-1.382 2.368-3.6 4.054-6.244 4.748-.866.228-1.744.341-2.617.341zm.019-19.507c-.787 0-1.579.102-2.36.307-4.932 1.297-7.89 6.366-6.595 11.3.628 2.385 2.149 4.385 4.286 5.632s4.625 1.591 7.012.961c2.386-.627 4.387-2.148 5.634-4.285s1.589-4.627.962-7.013-2.148-4.386-4.285-5.633c-1.438-.84-3.036-1.269-4.654-1.269zm-.002 17.505c-3.659 0-7.012-2.454-7.983-6.154-1.157-4.398 1.481-8.919 5.881-10.077 4.398-1.154 8.918 1.483 10.075 5.882 1.155 4.398-1.482 8.92-5.88 10.079-.699.183-1.401.27-2.093.27zm-1.848-15.265c-3.866 1.018-6.185 4.99-5.168 8.856 1.016 3.865 4.987 6.184 8.854 5.171 3.864-1.02 6.183-4.993 5.168-8.858-1.016-3.866-4.987-6.179-8.854-5.169z" fill="#63312d"/><path d="m50.762 34.238c-5.199 1.365-10.541-1.754-11.908-6.949-1.367-5.201 1.752-10.543 6.951-11.912 5.199-1.365 10.541 1.752 11.908 6.953 1.367 5.199-1.752 10.541-6.951 11.908zm-4.45-16.925c-4.133 1.088-6.61 5.334-5.525 9.467 1.087 4.131 5.334 6.609 9.465 5.523 4.135-1.086 6.613-5.332 5.527-9.465-1.087-4.133-5.334-6.613-9.467-5.525z" fill="#f8f3f3"/><path d="m48.287 35.06c-4.545 0-8.708-3.049-9.917-7.644-1.437-5.466 1.841-11.083 7.308-12.522 5.466-1.438 11.082 1.844 12.519 7.31.695 2.644.317 5.403-1.064 7.771-1.382 2.366-3.6 4.053-6.243 4.748-.87.227-1.744.337-2.603.337zm-.008-19.503c-.775 0-1.563.098-2.348.304-4.933 1.299-7.892 6.369-6.595 11.302 1.297 4.929 6.366 7.891 11.298 6.593 2.386-.628 4.386-2.149 5.633-4.286 1.247-2.136 1.589-4.626.962-7.012-1.09-4.149-4.848-6.901-8.95-6.901zm.004 17.502c-3.656 0-7.007-2.453-7.979-6.152-1.155-4.398 1.483-8.92 5.882-10.077 2.126-.562 4.349-.256 6.255.856 1.905 1.112 3.263 2.897 3.822 5.025s.255 4.35-.857 6.254c-1.112 1.905-2.897 3.263-5.026 3.821-.701.185-1.404.273-2.097.273zm.007-15.503c-.617 0-1.238.079-1.851.24-3.865 1.018-6.184 4.99-5.169 8.856 1.018 3.865 4.991 6.181 8.854 5.167 1.87-.491 3.438-1.685 4.417-3.358.978-1.675 1.245-3.626.754-5.496-.492-1.87-1.686-3.438-3.36-4.416-1.125-.657-2.377-.993-3.645-.993z" fill="#63312d"/><path d="m49.064 24.184-12.754-15.955 4.108-2.377-1.002-1.733-5.114 2.963c-.253.147-.428.397-.482.68-.053.287.02.58.201.809l1.431 1.791-13.548 8.752-4.226-5.287-1.562 1.252 4.402 5.504-5.771 12.383c-.165.35-.111.766.138 1.063.248.299.648.426 1.023.324l13.539-3.557c.288-.076.527-.277.652-.549l6.098-13.098 2.847-2.297 8.459 10.578zm-27.152-1.858 5.537 6.926-9.988 2.627zm12.849-6.588c-.119.098-.214.219-.278.357l-5.517 11.852-5.808-7.268 13.547-8.75 1.086 1.365z" fill="#f9a287"/><path d="m15.651 34.886c-.437 0-.862-.192-1.15-.539-.372-.443-.453-1.07-.205-1.596l5.64-12.099-4.209-5.262c-.172-.216-.138-.53.078-.702l1.562-1.252c.104-.084.241-.121.367-.107.132.015.253.081.336.185l3.943 4.935 12.704-8.207-1.086-1.358c-.271-.342-.381-.782-.303-1.211.084-.434.348-.805.724-1.022l5.114-2.963c.115-.066.253-.083.38-.051.128.034.237.118.304.233l1.002 1.732c.139.238.057.545-.183.683l-3.605 2.085 12.391 15.501c.083.104.121.236.106.368s-.081.252-.186.335l-1.562 1.246c-.214.173-.53.137-.702-.078l-8.146-10.187-2.365 1.909-6.049 12.992c-.187.406-.544.706-.978.821l-13.54 3.557c-.125.035-.254.052-.382.052zm1.168-19.73 4.091 5.113c.118.148.143.352.063.523l-5.771 12.383c-.083.176-.056.383.067.53.125.15.324.213.509.163l13.543-3.558c.144-.038.263-.139.325-.274l6.099-13.1c.032-.069.08-.13.139-.178l2.847-2.297c.104-.084.229-.123.369-.108.132.015.253.081.336.185l8.146 10.188.78-.623-12.442-15.562c-.091-.114-.128-.262-.101-.405.026-.143.115-.267.241-.34l3.675-2.127-.501-.866-4.681 2.712c-.126.073-.215.197-.242.342-.026.143.01.287.102.402l1.43 1.79c.088.111.126.254.103.393-.022.14-.104.264-.222.34l-13.548 8.752c-.217.138-.501.092-.662-.107l-3.913-4.896zm.642 17.223c-.146 0-.287-.064-.384-.18-.124-.148-.151-.355-.069-.531l4.451-9.553c.073-.157.222-.265.394-.285.168-.026.342.049.45.184l5.537 6.926c.105.133.137.309.084.47-.053.16-.184.283-.348.326l-9.988 2.627c-.042.011-.085.016-.127.016zm4.563-9.111-3.66 7.856 8.215-2.16zm6.942 5.179c-.151 0-.295-.068-.391-.188l-5.808-7.268c-.088-.11-.126-.253-.103-.393.022-.14.104-.264.222-.34l13.547-8.75c.215-.14.501-.093.663.108l1.086 1.365c.171.216.136.528-.078.701l-3.028 2.441c-.061.051-.108.111-.141.181l-5.517 11.852c-.073.157-.222.265-.394.285-.018.005-.039.006-.058.006zm-5.071-7.647 4.958 6.205 5.177-11.12c.096-.207.235-.387.414-.533.001-.001.003-.002.004-.003l2.644-2.131-.495-.622z" fill="#63312d"/><path d="m31.853 29.127c.385 1.469-.492 2.975-1.961 3.361-1.469.383-2.973-.494-3.359-1.963-.385-1.469.491-2.973 1.961-3.359 1.469-.385 2.973.492 3.359 1.961z" fill="#f9dd9d"/><path d="m28.521 30.75c-.385-1.463.484-2.959 1.941-3.354-.586-.305-1.279-.41-1.969-.23-1.47.387-2.346 1.891-1.961 3.359.387 1.469 1.891 2.346 3.359 1.963.008-.004.014-.008.019-.01-.66-.345-1.183-.949-1.389-1.728z" fill="#ffeecf"/><path d="m29.199 33.077c-1.443 0-2.766-.968-3.149-2.425-.454-1.733.585-3.515 2.317-3.97 1.736-.457 3.514.586 3.97 2.317.454 1.734-.585 3.516-2.317 3.972-.274.072-.55.106-.821.106zm-.008-5.501c-.188 0-.38.023-.57.073-1.199.315-1.919 1.549-1.604 2.749.315 1.198 1.544 1.916 2.75 1.606 1.198-.316 1.918-1.55 1.604-2.751-.267-1.008-1.182-1.677-2.18-1.677z" fill="#63312d"/><path d="m17.387 32.93c.252.957-.32 1.938-1.277 2.189-.957.25-1.936-.32-2.189-1.279-.25-.955.32-1.936 1.277-2.186.956-.252 1.937.319 2.189 1.276z" fill="#f9dd9d"/><path d="m15.657 35.678c-1.018 0-1.95-.683-2.221-1.71-.155-.593-.07-1.209.237-1.737.309-.528.805-.905 1.397-1.06.587-.156 1.207-.072 1.736.235.529.309.907.804 1.063 1.396.322 1.222-.411 2.479-1.634 2.8-.192.051-.386.076-.578.076zm-.003-3.583c-.109 0-.22.014-.33.043-.334.087-.612.299-.786.597s-.222.646-.135.979c.182.688.892 1.099 1.58.923.688-.182 1.102-.89.92-1.579-.152-.579-.676-.963-1.249-.963z" fill="#63312d"/><path d="m50.017 24.354c.251.955-.321 1.938-1.277 2.188-.957.252-1.938-.318-2.189-1.277-.252-.957.32-1.936 1.277-2.19.957-.251 1.938.321 2.189 1.279z" fill="#f9dd9d"/><path d="m48.278 27.102c-.4 0-.796-.106-1.151-.314-.528-.309-.905-.805-1.06-1.396-.321-1.22.411-2.476 1.633-2.8 1.223-.32 2.479.414 2.8 1.636.155.592.071 1.209-.238 1.739-.31.528-.805.904-1.396 1.059-.194.05-.391.076-.588.076zm.003-3.586c-.107 0-.218.014-.327.042-.688.183-1.101.891-.92 1.579.088.334.3.613.597.787.299.175.646.221.981.134.333-.087.611-.299.786-.597.174-.299.223-.647.135-.98-.152-.581-.678-.965-1.252-.965z" fill="#63312d"/><path d="m41.529 4.527c.252.955-.32 1.938-1.277 2.188-.956.25-1.937-.32-2.188-1.279-.252-.955.32-1.936 1.276-2.188.958-.25 1.937.32 2.189 1.279z" fill="#f9dd9d"/><path d="m39.799 7.273c-1.018 0-1.949-.683-2.218-1.711-.156-.591-.072-1.207.236-1.736.309-.528.805-.905 1.396-1.062 1.223-.318 2.479.414 2.799 1.636.156.592.071 1.209-.237 1.738-.31.529-.806.905-1.397 1.06-.193.051-.388.075-.579.075zm-.005-3.584c-.108 0-.218.014-.327.042-.332.088-.611.301-.785.599s-.222.646-.134.978c.181.689.891 1.104 1.577.924.334-.087.612-.3.787-.598.174-.298.222-.646.134-.979 0-.001 0-.001 0-.001-.152-.58-.679-.965-1.252-.965z" fill="#63312d"/><path d="m12.678 15.49s3.512-1.057 5.716-3.115c2.231-2.082 4.167-1.201 4.554-.695.467.611-.011 1.373-1.604 1.805-1.508.408-1.441 1.227-2.9 2.924-2.162 2.507-5.272.964-5.766-.919z" fill="#f9dd9d"/><path d="m15.807 18.216c-.279 0-.561-.032-.843-.097-1.346-.312-2.459-1.317-2.77-2.502-.068-.261.082-.528.339-.605.034-.011 3.429-1.05 5.52-3.002 1.411-1.317 2.689-1.503 3.514-1.442.856.072 1.51.458 1.778.809s.342.758.209 1.148c-.215.634-.934 1.132-2.079 1.442-.824.224-1.051.56-1.549 1.295-.266.394-.596.883-1.104 1.473-.832.965-1.899 1.481-3.015 1.481zm-2.471-2.418c.348.636 1.052 1.161 1.854 1.347.61.143 1.795.19 2.875-1.063.469-.546.769-.989 1.033-1.38.541-.802.933-1.38 2.115-1.7.913-.248 1.321-.585 1.395-.799.011-.032.034-.101-.058-.22-.084-.11-.47-.369-1.067-.419-.621-.06-1.604.109-2.748 1.176-1.777 1.66-4.317 2.676-5.399 3.058z" fill="#63312d"/></svg>