<?xml version="1.0"?>
<svg xmlns="http://www.w3.org/2000/svg" viewBox="0 0 64 64" width="512" height="512"><g id="flat"><path d="M50,31A11,11,0,1,0,61,42,11,11,0,0,0,50,31Zm0,18a7,7,0,1,1,7-7A7,7,0,0,1,50,49Z" style="fill:#545454"/><path d="M14,31A11,11,0,1,0,25,42,11,11,0,0,0,14,31Zm0,18a7,7,0,1,1,7-7A7,7,0,0,1,14,49Z" style="fill:#545454"/><path d="M14,43a1,1,0,0,1-.66-1.751l11-9.666a1,1,0,0,1,.373-.208l20-6,.574,1.917L25.5,33.229l-8.71,7.654,12.841-.535,15.742-12.79,1.262,1.551-16,13a.994.994,0,0,1-.589.224l-16,.666Z" style="fill:#e8594a"/><rect x="25.553" y="26.718" width="2" height="15.429" transform="translate(-12.588 15.494) rotate(-26.542)" style="fill:#e8594a"/><path d="M30,45.333a4,4,0,1,1,4-4A4,4,0,0,1,30,45.333Z" style="fill:#c4c4c2"/><path d="M52,43.333H50a1,1,0,0,1-.955-.7l-6-19.334a1,1,0,0,1,.713-1.266l3.009-.752L44.236,12H40V10h5a1,1,0,0,1,.965.737l3,11a1,1,0,0,1-.723,1.233l-2.973.744,5.467,17.619H52Z" style="fill:#e8594a"/><path d="M36,48H33a1,1,0,0,1-.884-.532l-3-5.667,1.768-.935L33.6,46H36Z" style="fill:#d1d1cf"/><path d="M19.3,28.674l-.126-.043a1.305,1.305,0,0,1-.837-.9h0a1.3,1.3,0,0,1,.929-1.591l7.309-1.921a1.14,1.14,0,0,1,1.392.813h0a1.138,1.138,0,0,1-.521,1.27l-3.135,1.86A6,6,0,0,1,19.3,28.674Z" style="fill:#545454"/></g></svg>
