<svg id="Layer_1_copy" height="512" viewBox="0 0 64 64" width="512" xmlns="http://www.w3.org/2000/svg" data-name="Layer 1 copy"><circle cx="50.5" cy="44.5" fill="#ef790f" r="12.5"/><g fill="#ef9143"><path d="m50.5 43.5-10.31 8.07a12.46 12.46 0 0 1 -2.19-7.07c0-.34 0-.67 0-1z"/><path d="m61.46 50.51a12.5 12.5 0 0 1 -4.36 4.6l-6.6-11.61z"/><path d="m50.5 43.5 6.25-9.82a12.29 12.29 0 0 0 -5.31-1.68z"/></g><circle cx="13.5" cy="44.5" fill="#ef790f" r="12.5"/><path d="m13.5 43.5-10.31 8.07a12.46 12.46 0 0 1 -2.19-7.07c0-.34 0-.67 0-1z" fill="#ef9143"/><path d="m24.46 50.51a12.5 12.5 0 0 1 -4.36 4.6l-6.6-11.61z" fill="#ef9143"/><path d="m13.5 43.5-6.25-9.82a12.29 12.29 0 0 1 5.31-1.68z" fill="#ef9143"/><circle cx="32" cy="43" fill="#279ecc" r="3"/><path d="m50.5 31c-.24 0-.48 0-.72 0l-1.78-11.08v-6.92h1a1 1 0 0 0 0-2h-5a1 1 0 0 0 0 2h2v6.19l-10.2 2.12a1 1 0 1 0 .41 2l8.53-1.78-12.26 17.47a3.93 3.93 0 0 0 -.48 0 4 4 0 0 0 -1.59.33l-5.48-13.71 7.27-1.52a1 1 0 0 0 -.41-2l-7.63 1.59-2.68-6.69h2.52a1 1 0 0 0 0-2h-8a1 1 0 0 0 0 2h3.32l2.94 7.36a1 1 0 0 0 -.15.18l-3.87 7.34a13.41 13.41 0 0 0 -10.69.49 1 1 0 0 0 .88 1.8 11.43 11.43 0 0 1 8.87-.51l-5.2 9.87a1 1 0 0 0 .9 1.47h12a11.49 11.49 0 1 1 -20.14-8.09 1 1 0 0 0 -1.5-1.32 13.49 13.49 0 1 0 23.64 9.41h1.58a4 4 0 1 0 5.83-5.19l12-17.21 1.39 8.67a13.5 13.5 0 1 0 2.7-.27zm-31.36 3.49a11.51 11.51 0 0 1 5.75 8.51h-10.23zm7.77 8.51a13.52 13.52 0 0 0 -6.84-10.28l3.15-6 5.56 13.91a4 4 0 0 0 -.78 2.37zm5.09 2a2 2 0 1 1 2-2 2 2 0 0 1 -2 2zm18.5 11a11.5 11.5 0 0 1 -2.39-22.75l1.89 11.91a1 1 0 0 0 1 .84h.16a1 1 0 0 0 .84-1.16l-1.9-11.84h.4a11.5 11.5 0 0 1 0 23z" fill="#072451"/></svg>