<svg enable-background="new 0 0 24 24" height="512" viewBox="0 0 24 24" width="512" xmlns="http://www.w3.org/2000/svg"><path d="m15.654 24h-12.654c-.414 0-.75-.336-.75-.75s.336-.75.75-.75h12.654c.142 0 .205-.087.233-.16s.04-.18-.065-.274l-6.651-6.019c-.541-.488-.721-1.244-.459-1.925.263-.682.904-1.122 1.634-1.122h8.654c.414 0 .75.336.75.75s-.336.75-.75.75h-8.654c-.142 0-.205.087-.233.16s-.04.18.065.274l6.651 6.019c.54.488.721 1.244.459 1.925-.263.682-.904 1.122-1.634 1.122z" fill="#2196f3"/><path d="m14.118 18.5h-2.236l3.94 3.565c.105.095.093.201.065.274s-.092.16-.233.16h-12.654c-.414 0-.75.336-.75.75 0 .415.336.751.75.751h12.654c.73 0 1.371-.44 1.633-1.122.262-.681.081-1.437-.459-1.925z" fill="#1d83d4"/><path d="m3 23c-.181 0-.362-.065-.506-.196-.101-.093-2.494-2.305-2.494-4.617 0-1.757 1.346-3.187 3-3.187s3 1.43 3 3.188c0 2.312-2.393 4.523-2.494 4.616-.144.131-.325.196-.506.196z" fill="#f44336"/><path d="m3 15c-1.654 0-3 1.43-3 3.188 0 2.312 2.393 4.523 2.494 4.616.144.131.325.196.506.196z" fill="#d43a2f"/><path d="m19 13c-.174 0-.347-.06-.487-.18-.185-.158-4.513-3.905-4.513-7.758 0-2.79 2.243-5.062 5-5.062s5 2.271 5 5.062c0 3.853-4.328 7.6-4.513 7.758-.14.12-.313.18-.487.18z" fill="#f44336"/><path d="m19 7c-1.103 0-2-.897-2-2s.897-2 2-2 2 .897 2 2-.897 2-2 2z" fill="#fff"/><path d="m19 0c-2.757 0-5 2.271-5 5.062 0 3.853 4.328 7.6 4.513 7.758.14.12.313.18.487.18v-6c-1.103 0-2-.897-2-2s.897-2 2-2z" fill="#d43a2f"/><path d="m19 3c-1.103 0-2 .897-2 2s.897 2 2 2z" fill="#dedede"/></svg>